HIERARCHY
ROOT Hips
{
  OFFSET 0.000000 0.000000 0.000000
  CHANNELS 6 Xposition Yposition Zposition Zrotation Yrotation Xrotation
  JOINT Spine
  {
    OFFSET 0.012494 2.142519 0.038421
    CHANNELS 3 Zrotation Yrotation Xrotation
    JOINT Spine1
    {
      OFFSET -0.029567 2.141989 -0.037509
      CHANNELS 3 Zrotation Yrotation Xrotation
      JOINT Spine2
      {
        OFFSET -0.033793 2.137338 -0.054507
        CHANNELS 3 Zrotation Yrotation Xrotation
        JOINT Neck
        {
          OFFSET -0.016776 1.657090 -0.054760
          CHANNELS 3 Zrotation Yrotation Xrotation
          JOINT Head
          {
            OFFSET 0.032982 1.739403 -0.042712
            CHANNELS 3 Zrotation Yrotation Xrotation
            End Site
            {
              OFFSET 0 0 0
            }
          }
        }
        JOINT LeftShoulder
        {
          OFFSET 3.395560 1.164964 0.086733
          CHANNELS 3 Zrotation Yrotation Xrotation
          JOINT LeftArm
          {
            OFFSET 5.239100 -0.000000 -0.000000
            CHANNELS 3 Zrotation Yrotation Xrotation
            JOINT LeftForeArm
            {
              OFFSET 3.314670 -0.000000 0.000000
              CHANNELS 3 Zrotation Yrotation Xrotation
              JOINT LeftHand
              {
                OFFSET 0.965900 -0.000000 0.000000
                CHANNELS 3 Zrotation Yrotation Xrotation
                JOINT LeftHandIndex1
                {
                  OFFSET 0.778733 -0.000000 0.000000
                  CHANNELS 3 Zrotation Yrotation Xrotation
                  End Site
                  {
                    OFFSET 0 0 0
                  }
                }
              }
            }
          }
        }
        JOINT RightShoulder
        {
          OFFSET -3.271928 1.313306 0.339403
          CHANNELS 3 Zrotation Yrotation Xrotation
          JOINT RightArm
          {
            OFFSET -5.302520 -0.000000 0.000000
            CHANNELS 3 Zrotation Yrotation Xrotation
            JOINT RightForeArm
            {
              OFFSET -3.678750 -0.000000 0.000000
              CHANNELS 3 Zrotation Yrotation Xrotation
              JOINT RightHand
              {
                OFFSET -0.594811 -0.000000 0.000000
                CHANNELS 3 Zrotation Yrotation Xrotation
                JOINT RightHandIndex1
                {
                  OFFSET -0.479552 -0.000000 0.000000
                  CHANNELS 3 Zrotation Yrotation Xrotation
                  End Site
                  {
                    OFFSET 0 0 0
                  }
                }
              }
            }
          }
        }
      }
    }
  }
  JOINT LeftUpLeg
  {
    OFFSET 2.478462 -6.809523 0.000000
    CHANNELS 3 Zrotation Yrotation Xrotation
    JOINT LeftLeg
    {
      OFFSET 2.752745 -7.563110 0.000000
      CHANNELS 3 Zrotation Yrotation Xrotation
      JOINT LeftFoot
      {
        OFFSET 0.128484 -0.353008 1.682235
        CHANNELS 3 Zrotation Yrotation Xrotation
        JOINT LeftToeBase
        {
          OFFSET 0.000000 -0.000000 0.873110
          CHANNELS 3 Zrotation Yrotation Xrotation
          End Site
          {
            OFFSET 0 0 0
          }
        }
      }
    }
  }
  JOINT RightUpLeg
  {
    OFFSET -2.447396 -6.724171 0.000000
    CHANNELS 3 Zrotation Yrotation Xrotation
    JOINT RightLeg
    {
      OFFSET -2.673430 -7.345195 0.000000
      CHANNELS 3 Zrotation Yrotation Xrotation
      JOINT RightFoot
      {
        OFFSET -0.169142 -0.464715 1.776261
        CHANNELS 3 Zrotation Yrotation Xrotation
        JOINT RightToeBase
        {
          OFFSET -0.000000 -0.000000 0.927771
          CHANNELS 3 Zrotation Yrotation Xrotation
          End Site
          {
            OFFSET 0 0 0
          }
        }
      }
    }
  }
}
MOTION
Frames: 13
Frame Time: 0.00833333
5.973390 18.038100 -25.327900 -70.995200 88.291700 -68.477000 -8.292370 -5.129590 6.827070 0.000000 0.000000 0.740172 1.992920 0.000000 -20.006100 0.000000 0.000000 32.099800 12.934500 12.502100 5.624810 0.000000 0.000000 -1.094370 -34.795800 0.000000 -28.887900 0.000000 0.000000 11.070700 -1.448970 -1.565440 -7.536400 0.881976 -1.999090 1.527590 1.482660 -1.051550 5.906590 -13.179100 -16.674800 5.822850 5.889040 -11.906800 4.780940 0.000000 0.000000 0.000000 83.120000 -3.571780 -31.384400 0.000000 0.000000 21.101200 -12.232300 0.000000 -7.379890 0.000000 0.000000 7.125020 0.000000 0.000000 0.000000 -82.607400 4.086130 -38.695800 0.000000 0.000000 27.677000 -39.650400 0.000000 -9.833430 0.000000 0.000000 7.125020
5.950400 18.028400 -25.326600 -116.347000 88.763200 -113.841000 -8.634440 -4.866290 6.096220 0.000000 0.000000 1.394770 1.285940 0.000000 -18.979900 0.000000 0.000000 31.940200 12.523900 13.216600 6.127510 0.000000 0.000000 -1.488640 -34.690100 0.000000 -32.102400 0.000000 0.000000 15.902600 -2.033660 -1.966200 -7.117040 0.785605 -2.480940 1.445120 1.663460 -1.305280 5.622030 -13.299900 -16.513900 6.541390 6.250300 -11.851500 4.248740 0.000000 -0.000000 0.000000 83.208600 -3.553020 -31.394800 0.000000 0.000000 21.134600 -11.998700 0.000000 -7.528600 0.000000 0.000000 7.125020 0.000000 -0.000000 0.000000 -81.156300 2.298000 -38.158700 0.000000 0.000000 28.026900 -38.887800 0.000000 -3.223740 0.000000 0.000000 7.125020
5.929450 18.048100 -25.306200 -136.772000 88.704300 -134.852000 -8.750310 -4.697290 6.420050 0.000000 0.000000 1.643250 0.892553 0.000000 -18.540100 0.000000 0.000000 31.712800 12.542500 12.785000 6.806740 0.000000 0.000000 -1.659520 -35.728400 0.000000 -30.723400 0.000000 0.000000 12.870200 -2.563020 -2.076380 -6.149280 0.757821 -2.602720 1.522760 1.948130 -1.379840 5.183110 -13.325400 -16.313600 7.505980 6.679790 -11.777900 3.599200 -0.000000 0.000000 0.000000 83.541900 -4.076960 -31.508000 0.000000 0.000000 21.365200 -11.337200 0.000000 -8.113220 0.000000 0.000000 7.125020 -0.000000 0.000000 0.000000 -80.231800 1.069190 -37.847600 0.000000 0.000000 27.978500 -36.696200 0.000000 -9.512920 0.000000 0.000000 7.125020
5.926730 18.038800 -25.314200 -145.571000 88.466900 -143.363000 -8.726210 -4.684000 5.916240 0.000000 0.000000 1.822700 0.739871 0.000000 -18.411800 0.000000 0.000000 31.497600 12.398900 12.585700 6.559910 0.000000 0.000000 -1.360460 -35.254900 0.000000 -31.563700 0.000000 0.000000 13.713000 -2.439120 -2.198030 -6.335130 0.736893 -2.770130 1.406060 1.834110 -1.456830 5.168470 -13.488100 -16.056800 8.553980 7.183090 -11.678400 2.930090 -0.000000 0.000000 0.000000 83.814200 -4.430890 -31.681600 0.000000 0.000000 21.587600 -10.929300 0.000000 -8.676060 0.000000 0.000000 7.125020 -0.000000 0.000000 0.000000 -79.783800 0.545765 -37.682300 0.000000 0.000000 27.748700 -35.141600 0.000000 -11.356800 0.000000 0.000000 7.125020
5.930670 18.053900 -25.301200 -128.994000 88.619600 -127.117000 -8.478680 -4.520230 6.519410 0.000000 0.000000 1.578160 0.800067 0.000000 -18.467600 0.000000 0.000000 31.815000 12.711500 12.177200 6.742750 0.000000 0.000000 -1.397910 -35.856100 0.000000 -29.173400 0.000000 0.000000 9.492050 -2.382780 -2.060570 -6.018960 0.814371 -2.601920 1.496500 1.911020 -1.373530 5.075710 -13.689000 -15.816000 9.615990 7.729910 -11.590300 2.264690 0.000000 0.000000 0.000000 83.923900 -4.609790 -31.776300 0.000000 0.000000 21.688000 -10.937800 0.000000 -8.730290 0.000000 0.000000 7.125020 0.000000 0.000000 0.000000 -79.920200 0.686016 -37.740000 0.000000 0.000000 27.685300 -34.917400 0.000000 -12.567900 0.000000 0.000000 7.125020
5.934700 18.062900 -25.298400 -113.344000 88.339300 -111.496000 -7.965560 -4.650770 6.723230 0.000000 0.000000 1.400610 0.990710 0.000000 -18.687400 0.000000 0.000000 32.091700 13.412700 13.102900 6.829670 0.000000 0.000000 -1.440470 -35.707800 0.000000 -30.776900 0.000000 0.000000 12.015600 -1.952200 -1.952980 -6.017130 0.949225 -2.498240 1.508320 1.820750 -1.311120 5.068050 -13.773400 -15.372000 11.689500 8.702120 -11.394300 0.889800 -0.000000 0.000000 0.000000 84.035200 -4.780520 -31.834900 0.000000 0.000000 21.745000 -11.020200 0.000000 -8.504730 0.000000 0.000000 7.125020 -0.000000 0.000000 0.000000 -79.551600 0.117817 -37.707800 0.000000 0.000000 27.703500 -34.041100 0.000000 -15.850700 0.000000 0.000000 7.125020
5.934340 18.064200 -25.296200 -110.471000 88.094600 -108.510000 -7.625550 -4.672200 6.612310 0.000000 0.000000 1.391220 0.961067 0.000000 -18.708100 0.000000 0.000000 32.385600 13.852100 13.638300 6.767040 0.000000 0.000000 -1.479830 -35.565100 0.000000 -31.952300 0.000000 0.000000 14.456200 -1.742490 -1.928380 -6.093240 1.051810 -2.485290 1.472120 1.809270 -1.299400 5.068100 -13.700100 -15.400600 11.607900 8.632530 -11.400000 0.899972 0.000000 -0.000000 0.000000 84.135300 -4.845800 -31.864700 0.000000 0.000000 21.765800 -11.071600 0.000000 -8.497310 0.000000 0.000000 7.125020 0.000000 -0.000000 0.000000 -78.816500 -0.916183 -37.558800 0.000000 0.000000 27.768200 -33.983400 0.000000 -19.261700 0.000000 0.000000 7.125020
5.931650 18.063500 -25.292000 -112.459000 88.057200 -110.417000 -7.564740 -4.600120 6.465310 0.000000 0.000000 1.446760 0.871829 0.000000 -18.531700 0.000000 0.000000 32.512300 13.942500 14.029100 6.760780 0.000000 0.000000 -1.519150 -35.062300 0.000000 -33.284500 0.000000 0.000000 17.520600 -1.784870 -1.927240 -6.108600 1.066500 -2.480870 1.455210 1.848580 -1.298540 5.061530 -13.842900 -15.451900 11.713100 8.730420 -11.460000 0.948300 0.000000 -0.000000 0.000000 84.192100 -4.926800 -31.831100 0.000000 0.000000 21.762000 -11.032600 0.000000 -8.560720 0.000000 0.000000 7.125020 0.000000 -0.000000 0.000000 -78.770000 -0.979938 -37.603000 0.000000 0.000000 27.747000 -35.553100 0.000000 -20.669800 0.000000 0.000000 7.125020
5.929660 18.063100 -25.288200 -113.413000 88.017700 -111.321000 -7.439920 -4.333840 6.347420 0.000000 0.000000 1.525940 0.820081 0.000000 -18.318800 0.000000 0.000000 31.558100 13.985600 13.974800 6.696220 0.000000 0.000000 -1.472860 -35.223300 0.000000 -33.112800 0.000000 0.000000 16.818100 -1.800760 -1.942510 -6.092640 1.094540 -2.501490 1.441890 1.885140 -1.309390 5.041590 -13.730700 -15.414000 11.423900 8.601930 -11.400300 0.984475 -0.000000 -0.000000 0.000000 84.230600 -4.966430 -31.836300 0.000000 0.000000 21.798400 -11.086800 0.000000 -8.453720 0.000000 0.000000 7.125020 -0.000000 -0.000000 0.000000 -79.175900 -0.148399 -37.727800 0.000000 0.000000 27.734100 -36.733300 0.000000 -21.012800 0.000000 0.000000 7.125020
5.928970 18.063100 -25.286500 -114.512000 87.999000 -112.396000 -7.368640 -4.084500 6.282720 0.000000 0.000000 1.571730 0.598508 0.000000 -18.162400 0.000000 0.000000 31.709900 14.000100 13.859400 6.647020 0.000000 0.000000 -1.437880 -35.593300 0.000000 -32.619300 0.000000 0.000000 15.223600 -1.818570 -1.950990 -6.069510 1.097100 -2.511870 1.435010 1.897550 -1.314920 5.022720 -13.725800 -15.411200 11.401700 8.612280 -11.398100 1.005340 0.000000 -0.000000 0.000000 84.238700 -4.935570 -31.847400 0.000000 0.000000 21.842800 -11.287100 0.000000 -8.226100 0.000000 0.000000 7.125020 0.000000 -0.000000 0.000000 -80.428200 1.679850 -38.072000 0.000000 0.000000 27.516100 -37.713600 0.000000 -19.639000 0.000000 0.000000 7.125020
5.928750 18.062700 -25.286500 -117.202000 88.026300 -115.077000 -7.449470 -4.045730 6.253180 0.000000 0.000000 1.564100 0.494657 0.000000 -18.081600 0.000000 0.000000 32.472700 13.932100 13.761500 6.653510 0.000000 0.000000 -1.462970 -35.839500 0.000000 -32.308300 0.000000 0.000000 14.257000 -1.838700 -1.937070 -6.050880 1.021890 -2.488620 1.439100 1.833760 -1.302880 5.012640 -13.613200 -15.466000 11.387700 8.600850 -11.428700 1.037800 -0.000000 0.000000 0.000000 84.240200 -5.019560 -31.847700 0.000000 0.000000 21.896400 -11.347500 0.000000 -8.050330 0.000000 0.000000 7.125020 -0.000000 0.000000 0.000000 -81.229400 2.541200 -38.290500 0.000000 0.000000 27.429700 -40.203900 0.000000 -6.457980 0.000000 0.000000 7.125020
5.928130 18.062200 -25.285700 -119.784000 88.038000 -117.656000 -7.505430 -4.011620 6.215960 0.000000 0.000000 1.570910 0.634777 0.000000 -17.986000 0.000000 0.000000 31.567200 13.891200 13.711200 6.679480 0.000000 0.000000 -1.463460 -35.945900 0.000000 -32.247500 0.000000 0.000000 14.047300 -1.851290 -1.929570 -6.024970 0.960242 -2.475260 1.438330 1.779110 -1.295580 4.994160 -13.544600 -15.507600 11.409900 8.604280 -11.455700 1.053980 -0.000000 0.000000 0.000000 84.273600 -5.194490 -31.893700 0.000000 0.000000 21.989200 -11.355900 0.000000 -8.023100 0.000000 0.000000 7.125020 -0.000000 0.000000 0.000000 -81.380500 2.719690 -38.262100 0.000000 0.000000 27.407900 -40.647300 0.000000 -6.604890 0.000000 0.000000 7.125020
5.927790 18.062100 -25.284300 -121.331000 88.037000 -119.181000 -7.522100 -4.048860 6.172730 0.000000 0.000000 1.567360 0.619022 0.000000 -17.931900 0.000000 0.000000 31.365400 13.778600 13.109600 6.583020 0.000000 0.000000 -1.385440 -36.264400 0.000000 -30.942400 0.000000 0.000000 11.134600 -1.879610 -1.928730 -6.024710 0.946278 -2.471310 1.432020 1.781030 -1.294170 4.987850 -13.513800 -15.550300 11.421500 8.591550 -11.482700 1.052070 -0.000000 -0.000000 0.000000 84.247300 -5.116760 -31.900500 0.000000 0.000000 22.017600 -11.532600 0.000000 -8.064480 0.000000 0.000000 7.125020 -0.000000 -0.000000 0.000000 -81.443200 2.950330 -38.189500 0.000000 0.000000 27.329700 -40.693900 0.000000 -6.409680 0.000000 0.000000 7.125020
